<svg width="300" height="190" viewBox="0 0 300 190" fill="none" xmlns="http://www.w3.org/2000/svg">
<rect width="300" height="190" rx="36" fill="#737E82"/>
<path d="M61.7109 69.0742V59.7969H116.496V69.0742H94.5234V130.5H83.7812V69.0742H61.7109ZM124.992 130.5H113.566L138.957 59.7969H151.359L176.848 130.5H165.422L158.977 111.848H131.438L124.992 130.5ZM134.562 102.863H155.852L145.402 72.6875H144.914L134.562 102.863ZM185.832 130.5V59.7969H211.711C226.75 59.7969 234.074 67.9023 234.074 78.3516C234.074 87.1406 228.703 91.6328 222.16 93.293V93.9766C229.191 94.3672 236.809 100.52 236.809 111.457C236.809 122.297 229.387 130.5 212.883 130.5H185.832ZM211.906 121.32C222.062 121.32 226.164 116.828 226.164 110.969C226.164 104.23 220.793 98.7617 212.297 98.7617H196.574V121.32H211.906ZM210.832 90.3633C217.961 90.3633 223.527 85.9688 223.527 79.2305C223.527 73.3711 219.523 68.9766 211.027 68.9766H196.574V90.3633H210.832Z" fill="white"/>
</svg>
