<svg width="1194" height="426" viewBox="0 0 1194 426" fill="none" xmlns="http://www.w3.org/2000/svg">
<path d="M311.289 221.512C367.911 221.512 391.628 250.752 391.628 290.033V292.396L387.857 287.966L380.446 278.12C363.153 258.431 339.155 261.68 309.807 261.68C284.312 261.68 276.308 267.291 276.308 279.695C276.308 292.395 278.764 297.318 301.887 301.748L336.473 311.594C378.272 319.568 396.074 336.403 396.074 365.347C396.074 396.949 374.73 425.303 318.404 425.303C260.004 425.303 233.026 401.675 233.025 357.964V354.124L237.681 357.964L249.514 369.187C266.807 383.954 284.609 385.136 320.479 385.136C345.677 385.136 351.903 380.115 351.903 366.824C351.903 353.534 348.346 345.854 320.479 341.128L287.064 333.745C249.119 327.247 232.137 312.184 232.137 281.468C232.137 251.342 254.37 221.512 311.289 221.512ZM445.39 344.673C445.39 373.026 455.469 382.478 488.375 382.478C520.985 382.478 531.064 373.026 531.064 344.673V284.569L568.199 236.279L575.532 224.466V345.264C575.532 394.587 546.183 425.303 488.375 425.303C430.567 425.303 401.218 394.587 401.218 345.264V224.466H445.39V344.673ZM702.928 323.703L719.529 350.284H722.493V311.889L743.493 290.033L766.368 264.338V422.35H718.936L657.274 328.724L638.005 298.303H635.04L635.633 328.724V366.726L591.165 422.35V224.466H638.598L702.928 323.703ZM874.425 224.466C921.857 224.466 948.241 246.321 948.241 284.717C948.241 316.91 932.233 336.107 898.141 339.061V342.015C915.335 347.331 923.636 357.668 931.344 372.73L956.542 422.35H904.663L881.243 376.57C872.35 359.44 866.421 352.057 845.373 352.057H827.586V422.35H783.118V315.433H876.5C897.252 315.433 904.663 309.526 904.663 290.033C904.663 271.131 897.252 264.338 876.5 264.338H783.118V224.466H874.425ZM1001.88 422.35H957.41V286.686H1001.88V422.35ZM1130.56 323.703L1147.16 350.284H1150.12L1149.53 323.703V311.889L1194 264.338V422.35H1146.57L1084.91 328.724L1065.64 298.303H1062.67L1063.26 328.724L1062.67 369.187L1018.8 422.35V224.466H1066.23L1130.56 323.703ZM179.255 404.825H123.521V354.124H179.255V404.825ZM179.255 315.039H123.521V261.68H179.255V315.039ZM1001.88 261.482H957.41V224.466H1001.88V261.482ZM516.996 120.207C516.996 170.712 494.168 200.837 439.621 200.837C381.814 200.837 359.285 171.303 359.284 121.98V116.072H406.42V124.048C406.42 149.742 410.274 158.01 438.14 158.01C465.708 158.01 469.56 149.742 469.561 124.048V96.9736L516.996 0V120.207ZM293.064 0C340.496 0.000584767 366.879 21.8571 366.879 60.252C366.879 92.444 350.871 111.643 316.78 114.597V117.548C333.974 122.864 342.274 133.203 349.981 148.266L375.178 197.885H323.299L299.883 152.106C290.989 134.976 285.056 127.59 264.008 127.59H246.223V197.885H201.755V90.9697H295.14C315.89 90.9694 322.71 84.763 322.71 65.2705C322.71 46.3691 314.733 37.9043 293.981 37.9043H201.755V0H293.064ZM44.4678 197.864H0L50.8418 167.364L44.4678 197.864ZM122.532 0C165.221 0 195.758 25.696 195.758 69.7031C195.757 114.005 165.221 139.108 122.532 139.108L64.2314 99.5312L56.8203 138.814L53.1865 156.169L1.83398 186.266L31.2275 0H122.532ZM64.2314 99.5312H124.312C144.767 99.5311 158.107 93.33 158.107 69.7031C158.107 45.7801 144.767 39.8703 124.312 39.8701H75.6953L64.2314 99.5312Z" fill="white"/>
</svg>
